<svg width="201" height="30" viewBox="0 0 201 30" fill="none" xmlns="http://www.w3.org/2000/svg">
<g clip-path="url(#clip0_4001_310)">
<path d="M34.9531 4.81129H36.9481V3.67129H31.8181L27.6856 22.0538L23.5531 3.67129H18.0668V4.81129H20.3468V22.695C20.3468 24.2625 20.1331 27.1125 20.0618 28.1813H17.5681H15.9293L11.0843 0.821289H8.80434L5.09934 20.9138C4.52934 23.9063 3.88809 27.1125 3.67434 28.1813H1.03809V29.3925H8.02059V28.1813H5.38434C5.59809 26.6138 6.31059 21.7688 6.52434 19.7738H10.9418L12.2956 28.1813H10.3718V29.3925H18.5656H17.4968V29.3213H18.5656V29.3925H24.0518V28.1813H21.8431C21.7718 27.1838 21.6293 24.69 21.6293 22.695V10.0125L26.1181 29.3925H27.3293L31.8181 9.22879V28.1813H29.7518V29.3925H37.0906V28.1813H35.0243L34.9531 4.81129ZM17.5681 28.395H18.2806H18.5656V28.4663H18.2806L17.5681 28.395ZM6.73809 18.4913L8.80434 6.80629L10.6568 18.4913H6.73809ZM38.3731 4.88254H40.3681V28.1813H38.3731V29.3925H49.7731V20.2725H48.4906V20.7C48.4906 25.6163 46.7093 28.1813 44.9993 28.1813H43.6456V16.0688C44.0018 16.14 44.2156 16.2825 44.2868 16.3538H44.3581C45.4268 17.2088 45.7118 20.13 45.7118 21.0563V21.4838H46.9943V9.30004H45.7118V9.72754C45.7118 10.6538 45.4268 13.575 44.3581 14.5013C44.2868 14.5725 44.0731 14.715 43.7168 14.715V4.74004H45.0706C46.8518 4.74004 48.5618 7.30504 48.5618 12.2925V12.72H49.8443V3.74254H38.4443L38.3731 4.88254ZM65.7331 23.1225C65.6618 23.1225 65.0206 23.1225 65.0206 24.12V25.0463C65.0206 27.4688 64.3081 28.3238 63.6668 28.3238C63.2393 28.3238 63.0256 27.255 63.0256 25.26V21.7688C63.0256 20.0588 62.6693 19.0613 61.3868 17.7788C60.5318 16.995 59.7481 16.5675 59.0356 16.3538C62.4556 14.8575 63.1681 12.2925 63.1681 10.2975C63.1681 8.37379 62.1706 6.45004 61.5293 5.73754C59.9618 3.95629 57.7531 3.67129 55.7581 3.67129H51.2693V4.81129H52.9793V28.1813H51.1981V29.3925H58.2518V28.1813H56.1856V17.0663C57.1831 17.0663 58.1806 17.2088 58.9643 17.9925C59.9618 18.99 59.9618 20.6288 59.9618 21.9113V25.4025C59.9618 27.4688 61.0306 29.6063 63.0256 29.6063C64.0231 29.6063 64.8068 29.25 65.4481 28.4663C66.4456 27.255 66.5881 25.0463 66.5881 24.1913C66.5168 23.4075 66.0893 23.1225 65.7331 23.1225ZM58.8218 14.5725C58.0381 15.6413 57.3968 15.7838 56.1143 15.7838V4.88254C56.9693 4.88254 58.1093 5.02504 58.7506 5.95129C59.4631 6.87754 59.7481 9.30004 59.7481 10.2975C59.8193 11.7225 59.5343 13.575 58.8218 14.5725Z" fill="black"/>
<path d="M66.3745 4.88243H68.0845V28.1812H66.6595V29.3924H72.8583V28.1812H71.1483V4.88243H72.8583V3.74243H66.3745V4.88243Z" fill="black"/>
<path d="M83.0468 19.275C82.548 19.275 82.3343 19.6313 82.3343 20.415C82.3343 25.4025 81.3368 28.11 79.4843 28.11H79.413C78.6293 28.11 78.273 28.11 77.6318 26.4C77.2043 25.3313 76.7768 22.8375 76.7768 16.9238C76.7768 11.58 77.0618 4.52626 79.3418 4.52626C81.4793 4.52626 82.3343 9.585 82.3343 12.3638V12.7913H83.5455V3.315H82.4768V3.74251C82.4768 3.81376 82.4768 4.38376 81.9068 4.38376C81.693 4.38376 81.4793 4.24126 81.1943 4.02751C80.838 3.74251 80.268 3.315 79.3418 3.315C75.423 3.315 73.0718 11.295 73.0718 16.995C73.0718 23.0513 75.2805 29.4638 79.4843 29.4638C82.9755 29.4638 83.9018 23.7638 83.9018 20.415C83.9018 20.13 83.9018 19.275 83.0468 19.275ZM105.989 4.88251H107.771C107.771 5.88001 107.842 8.51626 107.842 10.44V20.2725L103.424 3.74251H97.7955V4.88251H100.076V22.7663C100.076 24.0488 99.8618 27.1125 99.7905 28.2525H98.793H97.7955H96.3705L92.0955 3.74251H89.958L86.6093 21.7688C86.1818 24.405 85.6118 27.1838 85.398 28.1813H83.403V29.3925H89.388V28.1813H87.0368C87.2505 26.685 87.8205 22.5525 88.0343 20.7713H91.8105L93.0218 28.1813H91.3118V29.3925H97.7243V29.3213H98.7218V29.3925H103.424V28.1813H101.643C101.572 27.0413 101.429 23.9775 101.429 22.695V8.01751L107.129 29.3925H109.267V10.44C109.267 8.80126 109.481 5.95126 109.552 4.88251H111.903V3.74251H106.061L105.989 4.88251ZM100.717 28.5375C100.646 28.395 100.646 28.1813 100.717 27.9675C100.717 28.1813 100.717 28.395 100.717 28.5375ZM88.248 19.56L90.0293 9.585L91.5968 19.56H88.248ZM98.0093 29.1075V28.5375H97.7955V28.4663H98.0805H98.7218V28.5375H98.0805L98.0093 29.1075ZM130.927 21.4125C130.927 19.4888 130.286 17.565 129.074 16.14C127.863 14.715 126.866 14.0738 125.512 13.6463C127.792 12.72 130.143 10.5825 130.143 7.4475C130.143 5.09625 129.217 3.17251 127.364 1.96125C125.583 0.750005 123.374 0.536255 121.878 0.536255H116.392V1.67625H118.743V28.1813H116.392V29.3925H121.736C127.578 29.3925 130.927 26.5425 130.927 21.4125ZM122.234 13.0763V1.7475C123.731 1.81875 124.372 2.0325 125.156 2.67375C126.367 3.81376 126.367 6.66376 126.367 7.87501C126.367 10.44 125.013 12.2925 124.158 12.6488C123.517 12.9338 122.804 13.005 122.234 13.0763ZM126.794 21.84C126.794 23.4075 126.652 25.1175 125.654 26.8275C124.728 28.11 123.303 28.1813 122.234 28.1813V14.3588C123.374 14.3588 124.443 14.5013 125.441 15.6413C126.153 16.4963 126.794 18.7763 126.794 21.84ZM152.159 4.88251H153.941C153.941 5.88001 154.012 8.51626 154.012 10.44V20.2725L149.594 3.74251H143.966V4.88251H146.246V22.7663C146.246 24.0488 146.032 27.1125 145.961 28.2525H144.536H143.966H142.113L137.767 3.74251H135.629L132.352 21.7688C131.924 24.405 131.354 27.1838 131.141 28.1813H128.789V29.3925H135.131V28.1813H132.779C132.993 26.685 133.563 22.5525 133.777 20.7713H137.553L138.764 28.1813H137.054V29.3925H143.894H144.464H149.523V28.1813H147.742C147.671 27.0413 147.528 23.9775 147.528 22.695V8.01751L153.228 29.3925H155.366V10.44C155.366 8.80126 155.579 5.95126 155.651 4.88251H157.361V3.74251H152.159V4.88251ZM146.887 28.5375C146.816 28.395 146.816 28.2525 146.887 27.9675C146.887 28.1813 146.887 28.395 146.887 28.5375ZM133.991 19.56L135.772 9.585L137.339 19.56H133.991ZM144.179 29.1075L144.108 28.5375H144.179V29.1075ZM165.554 12.8625L166.694 10.5113C167.336 9.08626 168.903 5.80876 169.331 4.88251H171.682V3.74251H166.267V4.88251H167.763C167.193 6.23626 165.982 9.22875 165.697 9.79876L162.918 15.3563V4.88251H164.913V3.74251H157.859V4.88251H159.712V28.2525H158.002V29.4638H164.343V28.2525H162.918V18.0638L163.488 16.995L166.766 28.1813H165.697V29.3925H171.753V28.1813H169.972L165.554 12.8625ZM172.822 4.88251H174.532V28.2525H172.964V29.4638H183.866V20.2725H182.583V20.7C182.583 25.6163 180.802 28.1813 179.092 28.1813H177.667V16.0688C178.023 16.14 178.237 16.2825 178.308 16.3538H178.379C179.448 17.2088 179.733 20.13 179.733 21.0563V21.4838H181.016V9.30001H179.733V9.72751C179.733 10.6538 179.448 13.575 178.379 14.5013C178.308 14.5725 178.094 14.715 177.738 14.715V4.74001H179.092C180.873 4.74001 182.583 7.30501 182.583 12.2925V12.72H183.866V3.74251H172.822V4.88251ZM199.612 22.98C199.541 22.98 198.899 22.98 198.899 23.9775V24.9038C198.899 26.8988 198.401 28.11 197.546 28.11C197.118 28.11 196.904 27.1125 196.904 25.0463V21.555C196.904 19.845 196.548 18.8475 195.266 17.565C194.411 16.7813 193.627 16.3538 192.914 16.14C196.334 14.6438 197.047 12.0788 197.047 10.0838C197.047 8.16001 196.049 6.23626 195.408 5.52376C193.841 3.74251 191.632 3.45751 189.637 3.45751H185.148V4.59751H186.929V27.9675H185.148V29.1788H192.202V27.9675H190.136V16.9238C191.133 16.9238 192.131 17.0663 192.914 17.85C193.912 18.8475 193.912 20.4863 193.912 21.7688V25.26C193.912 27.3263 194.981 29.4638 196.976 29.4638C197.973 29.4638 198.686 29.1075 199.398 28.3238C200.396 27.1125 200.538 24.9038 200.538 24.0488C200.396 23.265 200.039 22.98 199.612 22.98ZM192.772 14.43C191.988 15.4988 191.347 15.6413 190.064 15.6413V4.74001C190.919 4.74001 192.059 4.88251 192.701 5.80876C193.413 6.73501 193.698 9.15751 193.698 10.155C193.698 11.58 193.484 13.4325 192.772 14.43Z" fill="black"/>
</g>
<defs>
<clipPath id="clip0_4001_310">
<rect width="199.5" height="29.2125" fill="white" transform="translate(0.966797 0.394043)"/>
</clipPath>
</defs>
</svg>
