<svg width="115" height="40" viewBox="0 0 115 40" fill="none" xmlns="http://www.w3.org/2000/svg">
<g clip-path="url(#clip0_2407_315)">
<path fill-rule="evenodd" clip-rule="evenodd" d="M0.466797 0.750811H8.15922C12.441 0.750811 14.6739 2.95916 14.6739 5.6828C14.6739 7.55989 13.6188 8.83583 12.1465 9.49834V9.54741C14.0236 10.2222 15.0787 11.7067 15.0787 13.6083C15.0787 16.3197 12.9931 18.6998 8.46594 18.6998H0.466797V0.750811ZM7.91385 7.86661C9.18978 7.86661 9.76641 7.21637 9.76641 6.49252C9.76641 5.76868 9.18978 5.0939 7.91385 5.0939H5.65642V7.85434H7.91385V7.86661ZM7.98746 14.3567C9.33701 14.3567 9.98724 13.7065 9.98724 12.8722C9.98724 12.0379 9.31247 11.3877 8.012 11.3877H5.65642V14.3567H7.98746ZM16.1829 11.4V0.750811H21.4216V11.3509C21.4216 13.3507 22.4031 14.4058 24.0839 14.4058C25.7647 14.4058 26.8198 13.3507 26.8198 11.3264V0.750811H32.083V11.4C32.083 15.9148 29.0527 19.166 24.0839 19.166C19.1151 19.166 16.1829 15.9148 16.1829 11.4ZM45.4313 1.62188V6.23488C44.3026 5.43742 42.3764 4.88533 40.8183 4.88533C39.3951 4.88533 38.6835 5.33927 38.6835 5.94044C38.6835 6.5416 39.481 6.84831 40.8919 7.3636C43.2965 8.21013 46.56 9.33884 46.56 13.1544C46.56 16.5651 43.9836 19.0924 39.4687 19.0924C37.1377 19.0924 35.003 18.4176 33.6779 17.5343V12.6759C34.9784 13.731 36.9414 14.5775 38.843 14.5775C40.4502 14.5775 41.1986 13.9764 41.1986 13.3016C41.1986 12.4305 39.9717 12.0502 38.5118 11.5227C36.5856 10.8233 33.543 9.57195 33.543 6.08766C33.5307 2.94689 36.009 0.370483 40.4257 0.370483C42.3764 0.370483 44.1308 0.873497 45.4313 1.62188ZM47.8973 0.750811H53.136V18.6998H47.8973V0.750811ZM71.7597 18.7121H66.7664L60.3008 9.0812H60.2763V18.7121H55.3075V0.750811H60.3008L66.7664 10.2222H66.7909V0.750811H71.7597V18.7121ZM73.9313 0.750811H86.3349V5.41289H79.17V7.57216H85.611V11.8048H79.17V14.0377H86.3349V18.6998H73.9313V0.750811ZM99.4745 1.62188V6.23488C98.3458 5.43742 96.4197 4.88533 94.8615 4.88533C93.4384 4.88533 92.7268 5.33927 92.7268 5.94044C92.7268 6.5416 93.5243 6.84831 94.9352 7.3636C97.3398 8.21013 100.603 9.33884 100.603 13.1544C100.603 16.5651 98.0268 19.0924 93.512 19.0924C91.181 19.0924 89.0462 18.4176 87.7212 17.5343V12.6759C89.0217 13.731 90.9847 14.5775 92.8863 14.5775C94.4935 14.5775 95.2419 13.9764 95.2419 13.3016C95.2419 12.4305 94.015 12.0502 92.555 11.5227C90.6289 10.8233 87.5863 9.57195 87.5863 6.08766C87.574 2.94689 90.0522 0.370483 94.4689 0.370483C96.4197 0.370483 98.1741 0.873497 99.4745 1.62188ZM113.338 1.62188V6.23488C112.209 5.43742 110.283 4.88533 108.725 4.88533C107.302 4.88533 106.59 5.33927 106.59 5.94044C106.59 6.5416 107.388 6.84831 108.799 7.3636C111.203 8.21013 114.467 9.33884 114.467 13.1544C114.467 16.5651 111.89 19.0924 107.376 19.0924C105.044 19.0924 102.91 18.4176 101.585 17.5343V12.6759C102.885 13.731 104.848 14.5775 106.75 14.5775C108.357 14.5775 109.105 13.9764 109.105 13.3016C109.105 12.4305 107.879 12.0502 106.419 11.5227C104.492 10.8233 101.45 9.57195 101.45 6.08766C101.438 2.94689 103.916 0.370483 108.332 0.370483C110.283 0.370483 112.038 0.873497 113.338 1.62188ZM11.9625 39.2497H17.2012V21.3007H11.9625V39.2497ZM35.825 21.3007H30.8439V30.7721H30.8194L24.3538 21.3007H19.3605V39.2497H24.3415V29.6189H24.3661L30.8316 39.2497H35.825V21.3007ZM44.2658 20.9082C39.8491 20.9082 37.3708 23.4846 37.3708 26.6253C37.3708 30.1096 40.4257 31.361 42.3396 32.0603C43.8118 32.5879 45.0264 32.9682 45.0264 33.8393C45.0264 34.514 44.278 35.1152 42.6708 35.1152C40.7692 35.1152 38.8062 34.2687 37.5058 33.2136V38.0719C38.8308 38.9553 40.9655 39.6301 43.2965 39.6301C47.8114 39.6301 50.3878 37.1027 50.3878 33.6921C50.3878 29.8765 47.1244 28.7355 44.7197 27.9013C43.2965 27.3983 42.5114 27.1038 42.5114 26.4781C42.5114 25.8524 43.2352 25.423 44.6461 25.423C46.2042 25.423 48.1304 25.9751 49.2591 26.7726V22.1596C47.9586 21.4112 46.2042 20.9082 44.2658 20.9082ZM51.6147 39.2497H56.8534V21.3007H51.6147V39.2497ZM64.2513 34.514H65.2574C67.9687 34.514 69.7231 32.9805 69.7231 30.2814C69.7231 27.5823 67.9687 26.0242 65.2574 26.0242H64.2513V34.514ZM75.0232 30.2814C75.0232 35.6918 70.9377 39.2497 65.0733 39.2497H59.0126V21.3007H65.0733C70.9377 21.3007 75.0232 24.8832 75.0232 30.2814ZM76.4341 39.2497H88.8377V34.5877H81.6728V32.3548H88.1138V28.1221H81.6728V25.9628H88.8377V21.3007H76.4341V39.2497ZM97.0822 29.7784C98.4072 29.7784 99.4377 29.1527 99.4377 27.9013C99.4377 26.6499 98.4072 26.0242 97.0576 26.0242H95.9535V29.7784H97.0822ZM105.658 39.2497H99.4868L96.0761 33.7043H95.9535V39.2497H90.7148V21.3007H97.1067C101.597 21.3007 104.726 23.3005 104.726 27.5455C104.726 29.2263 103.977 31.68 100.996 32.9314L105.658 39.2497Z" fill="black"/>
</g>
<defs>
<clipPath id="clip0_2407_315">
<rect width="114" height="39.2595" fill="white" transform="translate(0.466797 0.370483)"/>
</clipPath>
</defs>
</svg>
