<svg width="145" height="48" viewBox="0 0 145 48" fill="none" xmlns="http://www.w3.org/2000/svg">
<path fill-rule="evenodd" clip-rule="evenodd" d="M20.0651 0.108781C15.7072 0.644389 10.9111 2.88421 6.82097 6.34132C5.99321 7.023 4.26465 8.70286 4.26465 8.80024C4.26465 8.84894 5.09241 9.72538 6.11494 10.7479L7.96522 12.6225L7.18615 13.499C4.31335 16.737 2.36568 20.0237 1.19708 23.5051C0.466702 25.6963 0.150208 27.4978 0.150208 29.5185C0.150208 31.3445 0.393665 32.8296 0.953619 34.266L1.17273 34.8503L6.60185 40.2794C11.1302 44.8077 12.1527 45.7816 12.7127 46.1468C13.8813 46.9258 15.2446 47.4614 16.7541 47.7779C17.7522 47.997 20.0651 48.0701 21.1607 47.924C25.4942 47.3884 29.9739 45.3433 33.8935 42.081C34.9161 41.2289 36.6446 39.5977 36.6446 39.5003C36.6446 39.4517 35.7925 38.5752 34.77 37.5283L32.8954 35.6294L33.4797 35.0207C34.9161 33.5113 36.669 31.101 37.6915 29.2021C39.1522 26.5484 40.1017 23.6756 40.4182 21.0462C40.5399 19.9019 40.4669 17.4674 40.2721 16.5422C39.9313 14.9841 39.3957 13.7181 38.5923 12.5008C38.1784 11.8678 37.3506 11.0157 32.7736 6.41435L27.4175 1.05827L26.8576 0.839156C26.1029 0.52266 24.5447 0.157474 23.5952 0.0600902C22.6458 -0.0372932 21.1607 -0.0129481 20.0651 0.108781ZM24.6665 1.54519C25.056 1.64257 25.689 1.78865 26.0298 1.91038C26.6628 2.12949 26.6872 2.12949 27.6853 3.12767C28.5618 4.00412 28.6835 4.12585 28.4644 4.1015C27.2958 3.88239 25.4212 3.8337 23.9604 4.02846C19.286 4.61276 14.4656 6.97431 10.0346 10.8696C9.59639 11.2592 9.20686 11.6 9.13382 11.6487C9.06078 11.6974 8.67125 11.3809 7.52699 10.2366L6.01755 8.72721L6.99139 7.8751C11.0571 4.32061 15.5368 2.08079 19.919 1.4478C21.0876 1.27738 23.6926 1.35042 24.6665 1.54519ZM31.0451 9.28716C33.1875 9.60366 35.0621 10.5288 36.4498 11.9165C37.8132 13.2799 38.6897 15.0328 39.1035 17.2239C39.274 18.1977 39.274 20.3889 39.1035 21.5331C38.5436 25.0633 36.9124 28.6908 34.3805 32.0018C33.7962 32.7809 32.4084 34.4121 32.1893 34.5825C32.0676 34.6799 31.9215 34.5581 30.6555 33.2922C29.8765 32.5131 29.2435 31.8558 29.2435 31.8314C29.2435 31.8071 29.4626 31.5393 29.7304 31.2471C34.137 26.3779 36.2064 20.2915 34.7456 16.5179C34.1613 15.0571 32.944 13.9616 31.3616 13.4746C30.5582 13.2312 29.1461 13.1095 28.0992 13.2312C26.4924 13.3773 24.5204 14.0103 22.6214 14.9354C20.7224 15.8605 18.9939 17.0291 17.314 18.5386L16.5593 19.1959L15.1229 17.7595L13.6865 16.3231L14.2951 15.7632C18.0201 12.2817 22.9623 9.79842 27.1984 9.23847C28.0505 9.16543 30.2417 9.16543 31.0451 9.28716ZM10.9111 17.6865C10.3755 18.2951 9.69377 19.1472 9.35293 19.5855C5.31152 24.9659 3.46124 30.8089 4.21596 35.8485L4.26465 36.165L3.26647 35.1911C2.31699 34.266 2.2683 34.1929 2.07353 33.6087C0.174554 28.1552 2.56044 20.6323 8.18433 14.3268L8.84167 13.5964L10.3511 15.1058L11.8606 16.6153L10.9111 17.6865ZM29.9252 14.5702L30.1199 14.6189L30.0712 15.6414C30.0225 16.8587 29.8521 17.8569 29.6087 18.709C28.8296 21.2653 27.3932 23.8216 25.2995 26.2319L24.496 27.157L22.9623 25.6232L21.4285 24.0894L22.1345 23.3104C23.6439 21.6548 25.0317 19.7315 25.8838 18.1004C26.3463 17.2239 26.955 15.7388 27.1254 15.0571C27.2228 14.6432 27.2228 14.6432 27.588 14.5946C27.7827 14.5702 28.0018 14.5459 28.0749 14.5215C28.2696 14.5215 29.7547 14.5215 29.9252 14.5702ZM25.5673 15.6414C25.2264 16.5909 24.4717 18.0517 23.7413 19.1472C22.9379 20.3645 22.378 21.0949 21.258 22.3609L20.479 23.2617L18.9452 21.7279L17.4114 20.1941L17.9227 19.7315C19.5051 18.3195 21.3554 17.0535 23.0596 16.177C23.9848 15.7145 25.4942 15.1058 25.7133 15.0815C25.7377 15.0815 25.689 15.3249 25.5673 15.6414ZM48.8906 16.5666C48.8175 16.6396 48.7932 18.6603 48.7932 26.0614C48.7932 35.0694 48.7932 35.4589 48.9393 35.5807C49.061 35.7024 49.4505 35.7024 52.7372 35.7024C54.7336 35.7024 56.9004 35.6537 57.5333 35.6294C60.0897 35.4589 62.0617 34.6312 63.5711 33.1217C64.7641 31.9288 65.5188 30.2733 65.9083 28.0821C66.0787 27.0109 66.0787 24.7711 65.9083 23.7242C65.2753 20.1941 63.2546 17.9056 60.0166 16.9804C58.4341 16.5422 58.3124 16.5179 53.4919 16.4935C49.9131 16.4935 48.9636 16.4935 48.8906 16.5666ZM137.534 16.8831C137.461 16.9561 137.436 17.5647 137.436 19.1229V21.2653H136.511C135.903 21.2653 135.562 21.2897 135.489 21.3627C135.367 21.4844 135.367 24.0164 135.489 24.1625C135.562 24.2355 135.903 24.2598 136.511 24.2598H137.436L137.461 28.5934C137.485 32.8296 137.485 32.9513 137.655 33.4382C138.118 34.7773 139.068 35.5076 140.601 35.7024C141.648 35.8241 143.133 35.7754 144.156 35.5807L144.375 35.532L144.351 33.7547L144.326 31.9775L143.352 31.9288C142.306 31.8801 142.135 31.8314 142.013 31.6123C141.965 31.5149 141.94 30.0542 141.94 27.8874V24.3085L143.182 24.2842L144.424 24.2598V22.7747V21.2897L143.182 21.2653L141.94 21.241V19.1472C141.94 17.8569 141.916 17.0048 141.867 16.9074C141.794 16.7613 141.673 16.7613 139.725 16.7613C138.191 16.81 137.607 16.8344 137.534 16.8831ZM57.8498 20.9975C59.3349 21.387 60.3088 22.4339 60.6983 23.9677C60.9905 25.1363 60.9904 27.084 60.674 28.3013C60.3575 29.4942 59.6271 30.4437 58.6533 30.9063C57.8011 31.3201 57.2899 31.3932 55.537 31.4419L53.9545 31.4906V26.1345V20.7784L55.6587 20.8271C56.9003 20.8514 57.509 20.9001 57.8498 20.9975ZM72.7251 21.0949C70.2906 21.5331 68.4159 23.1399 67.5882 25.4771C66.4926 28.5447 67.0282 32.0505 68.8785 34.0225C69.8523 35.0451 70.7775 35.5807 72.1895 35.9459C74.8919 36.6275 77.7891 35.9215 79.7124 34.1199C80.175 33.706 81.3679 32.1966 81.3679 32.0505C81.3679 31.8801 81.0271 31.661 79.6394 30.955C78.7873 30.5167 78.0812 30.1515 78.0569 30.1515C78.0325 30.1515 77.8865 30.3707 77.7404 30.6385C77.3995 31.2958 76.6935 32.0262 76.1823 32.294C74.6485 33.0487 72.8469 32.6105 72.0678 31.2958C71.8487 30.9063 71.6296 30.2246 71.6296 29.8594V29.5916H76.4987C80.175 29.5916 81.3679 29.5672 81.4409 29.4942C81.5627 29.3725 81.5627 28.3986 81.4166 27.4248C81.0271 24.8198 79.9315 22.9452 78.1786 21.8983C77.5943 21.5575 76.4744 21.1679 75.744 21.0462C75.0136 20.9245 73.4555 20.9488 72.7251 21.0949ZM88.7204 20.9975C88.0387 21.0949 87.4787 21.2166 87.0405 21.3627C84.5816 22.1418 82.9504 24.1625 82.4391 27.0353C82.2444 28.1308 82.3174 29.8837 82.5852 30.9306C82.9504 32.3427 83.486 33.2678 84.4598 34.193C85.3119 34.9964 86.3101 35.5563 87.6491 35.9215C88.0387 36.0432 88.4282 36.0676 89.4264 36.0676C90.5706 36.0676 90.7411 36.0432 91.3741 35.8485C92.64 35.4589 93.6139 34.8746 94.4903 33.9495C95.0746 33.3409 95.732 32.4401 95.732 32.2453C95.732 32.1722 95.6102 32.0505 95.4885 31.9531C94.9772 31.6366 92.6157 30.468 92.494 30.468C92.4209 30.468 92.2992 30.6385 92.1775 30.8819C91.8853 31.5149 91.4958 31.9288 90.8871 32.2209C90.4246 32.4401 90.2785 32.4887 89.7672 32.4644C89.0855 32.4644 88.6473 32.294 88.0874 31.8071C86.6266 30.5167 86.5292 26.9379 87.9169 25.3067C88.7934 24.2842 90.4246 24.2842 91.4714 25.2824C91.6419 25.4528 91.8853 25.7693 92.007 25.9884C92.1288 26.2075 92.2748 26.4023 92.3479 26.4023C92.5183 26.451 95.5128 24.7224 95.5615 24.552C95.5859 24.4059 95.2694 23.919 94.8068 23.3347C94.0521 22.4096 92.567 21.5088 91.2767 21.2166C90.6193 21.0462 89.2073 20.9488 88.7204 20.9975ZM127.771 21.1679C126.968 21.314 126.237 21.6062 125.653 22.0444L125.19 22.3852L125.166 21.8983L125.142 21.4114L123.267 21.387C121.612 21.3627 121.368 21.387 121.246 21.5088C121.1 21.6305 121.1 21.9957 121.1 31.0036C121.1 38.1857 121.125 40.3768 121.198 40.4498C121.344 40.5959 125.434 40.5959 125.556 40.4498C125.629 40.3768 125.653 39.6464 125.653 37.6744V34.9964L126.408 35.3859C127.43 35.8972 128.063 36.0189 129.256 35.9702C130.644 35.8972 131.472 35.6294 132.372 34.9477C133.638 33.9982 134.466 32.5374 134.929 30.5167C135.172 29.4455 135.172 27.5709 134.929 26.4266C134.612 24.9172 134.101 23.8947 133.176 22.9208C131.812 21.4114 129.816 20.8027 127.771 21.1679ZM17.9714 22.6043C19.286 23.919 19.3591 24.0164 19.2617 24.1625C19.1886 24.2355 18.8722 24.6007 18.5313 24.9902C17.1679 26.5484 15.902 28.4473 15.0499 30.2002C14.4412 31.4419 14.076 32.4644 13.7108 33.8521C13.2483 35.678 13.2483 37.6987 13.7595 39.1108C14.709 41.7889 17.2166 43.0548 20.7224 42.641C24.1065 42.2271 28.0018 40.2794 31.3372 37.3336L32.0433 36.7006L33.4797 38.137L34.9161 39.5734L34.3074 40.1333C31.1911 43.0305 27.028 45.392 23.4248 46.2685C21.9641 46.6337 20.9416 46.7554 19.5538 46.7554C17.7036 46.7554 16.3402 46.5119 14.9038 45.879C13.0535 45.0755 11.3493 43.4931 10.4728 41.7402C9.37728 39.5734 9.06078 36.8953 9.5477 33.9982C10.2294 29.9568 12.4935 25.6232 15.8289 21.8983C16.1698 21.5088 16.4863 21.1923 16.5106 21.1923C16.535 21.1923 17.1923 21.8253 17.9714 22.6043ZM104.594 21.2897C103.644 21.4357 102.451 21.874 101.672 22.3852L101.429 22.5556V22.0444C101.429 21.7522 101.38 21.5088 101.331 21.4357C101.258 21.3627 100.699 21.3383 99.2621 21.3383C97.4605 21.3383 97.2657 21.3384 97.1684 21.4844C97.0466 21.6062 97.0466 22.2148 97.0466 28.5447C97.0466 35.1424 97.0466 35.4589 97.1927 35.5807C97.3144 35.7024 97.5822 35.7024 99.3351 35.7024C100.893 35.7024 101.356 35.678 101.429 35.605C101.478 35.532 101.526 34.0956 101.526 31.1497C101.551 27.0596 101.551 26.7675 101.697 26.4997C101.989 25.9154 102.5 25.6719 103.985 25.4285C104.545 25.3311 105.105 25.2337 105.227 25.2093L105.446 25.1606V23.2617C105.446 21.3627 105.422 21.1436 105.178 21.1923C105.081 21.2166 104.837 21.241 104.594 21.2897ZM106.59 21.4601C106.541 21.5331 106.517 21.6548 106.542 21.7766C106.566 21.874 107.223 24.0164 108.002 26.4997C111.119 36.5302 110.948 35.9459 110.729 36.3354C110.534 36.7249 110.193 36.798 108.976 36.798C108.221 36.798 107.832 36.8223 107.783 36.8953C107.71 36.9684 107.686 37.4553 107.686 38.6482C107.686 39.8412 107.71 40.3281 107.783 40.4011C107.905 40.5229 110.997 40.5229 111.8 40.4255C113.139 40.2307 114.235 39.2812 114.868 37.7718C115.014 37.4553 116.255 33.6817 117.643 29.3968C119.761 22.9208 120.175 21.5818 120.078 21.4844C120.005 21.387 119.64 21.3627 117.716 21.3627H115.452L115.379 21.7035C115.33 21.8983 114.868 23.919 114.332 26.2319C113.797 28.5447 113.358 30.468 113.31 30.4924C113.285 30.5167 112.774 28.4717 112.214 25.9641L111.167 21.3627H108.903C107.028 21.3627 106.663 21.3627 106.59 21.4601ZM75.5006 24.5033C76.2309 24.8441 76.7179 25.5015 76.8639 26.3049L76.9126 26.597H74.3076H71.7026L71.7513 26.3536C71.8487 25.9154 72.2626 25.2093 72.6034 24.9172C73.1877 24.4059 73.699 24.2355 74.5024 24.2842C74.8919 24.3085 75.1841 24.3816 75.5006 24.5033ZM129.232 24.625C129.913 24.9902 130.425 25.7449 130.668 26.7675C130.839 27.5222 130.839 29.3238 130.644 30.0785C130.473 30.7358 130.133 31.4175 129.767 31.8801C129.183 32.5861 128.039 32.7809 127.114 32.3183C126.043 31.7827 125.531 30.5898 125.531 28.5934C125.531 26.7431 126.018 25.4284 126.919 24.7711C127.625 24.2842 128.477 24.2355 129.232 24.625ZM22.7431 28.5691C20.7468 30.4437 18.1905 32.1236 16.0724 32.9757C15.6342 33.1461 15.2446 33.2922 15.2203 33.2922C15.1959 33.2922 15.2933 33.0244 15.415 32.6835C16.3402 30.1272 17.947 27.5222 19.8703 25.4528L20.3329 24.9659L21.8667 26.4753L23.4005 27.9848L22.7431 28.5691ZM25.8107 30.468L27.2958 31.9531L26.8332 32.3914C24.3987 34.6799 20.6494 36.7493 17.9957 37.3092C17.3384 37.4553 15.8776 37.6014 15.1716 37.6014H14.709V36.4815C14.709 35.8728 14.7334 35.2155 14.7577 35.0694L14.8064 34.7773L15.7559 34.4608C18.1661 33.6817 21.2337 31.7584 23.4979 29.6159C23.8631 29.2751 24.2039 28.9829 24.2526 28.9829C24.3013 28.9829 25.0073 29.6403 25.8107 30.468Z" fill="#29171B"/>
</svg>
