<svg width="105" height="28" viewBox="0 0 105 28" fill="none" xmlns="http://www.w3.org/2000/svg">
<path d="M59.685 9.35389C59.685 6.29149 59.7378 3.44029 59.8962 0.800293L51.8178 2.33149V3.07069L52.6098 3.17629C53.1906 3.22909 53.5602 3.44029 53.7714 3.75709C53.9826 4.12669 54.141 4.65469 54.2466 5.44669C54.3522 6.97789 54.4578 10.4627 54.405 15.9539C54.405 21.3923 54.3522 24.8243 54.2466 26.1443C57.1506 26.7779 59.421 27.0419 61.1106 27.0419C64.2786 27.0419 66.7602 26.1443 68.5554 24.2963C70.3506 22.5011 71.301 19.9667 71.301 16.8515C71.301 14.3699 70.6146 12.3107 69.2418 10.6739C67.869 9.03709 66.1266 8.24509 64.0674 8.24509C62.6946 8.24509 61.269 8.61469 59.685 9.35389ZM59.8434 25.6163C59.7378 23.9267 59.6322 18.8579 59.6322 10.5683C60.1074 10.4099 60.741 10.3043 61.533 10.3043C62.8002 10.3043 63.8034 10.9379 64.5426 12.2579C65.2818 13.5779 65.6514 15.1619 65.6514 17.1683C65.6514 19.6499 65.229 21.6563 64.3842 23.3459C63.5394 24.9827 62.4834 25.8275 61.1634 25.8275C60.741 25.7219 60.3186 25.6691 59.8434 25.6163ZM21.5106 1.32829H0.390625V2.38429L1.49942 2.48989C2.34422 2.64829 2.92502 2.96509 3.29462 3.44029C3.66422 3.96829 3.87542 4.81309 3.92822 5.97469C4.35062 11.6771 4.35062 17.0099 3.92822 21.9203C3.82262 23.0819 3.61142 23.9267 3.29462 24.4547C2.92502 24.9827 2.34422 25.2995 1.49942 25.4051L0.390625 25.5635V26.6195H14.013V25.5635L12.5874 25.4579C12.2396 25.4288 11.9012 25.3296 11.5927 25.1662C11.2841 25.0029 11.0119 24.7788 10.7922 24.5075C10.4226 23.9795 10.2114 23.1347 10.1586 21.9731C10.0002 19.8611 9.89462 17.4323 9.89462 14.7395L12.7458 14.7923C14.277 14.8451 15.333 16.0067 15.861 18.3299H16.917V9.72349H15.861C15.333 11.9939 14.3298 13.1555 12.7458 13.2083L9.89462 13.2611C9.89462 8.50909 10.0002 5.12989 10.1586 3.07069H14.3298C17.2866 3.07069 19.293 4.97149 20.4546 8.77309L21.7218 8.40349L21.5106 1.32829ZM19.029 17.5907C19.029 20.3363 19.821 22.6067 21.3522 24.4019C22.8834 26.1971 25.1538 27.0419 28.005 27.0419C30.8562 27.0419 33.1794 26.1443 34.869 24.2963C36.5586 22.5011 37.3506 20.2307 37.3506 17.4851C37.3506 14.7395 36.5586 12.4691 35.0274 10.6739C33.4962 8.87869 31.2258 8.03389 28.3746 8.03389C25.5234 8.03389 23.2002 8.93149 21.5106 10.7795C19.821 12.5747 19.029 14.8451 19.029 17.5907ZM30.8034 11.5715C31.437 13.1027 31.701 15.1091 31.701 17.5379C31.701 23.1347 30.5394 25.8803 28.269 25.8803C27.1074 25.8803 26.2098 25.0883 25.5762 23.5043C24.9426 21.9203 24.6786 19.9139 24.6786 17.5379C24.6786 11.9939 25.8402 9.24829 28.1106 9.24829C29.2722 9.19549 30.1698 9.98749 30.8034 11.5715ZM75.4194 24.4019C77.1618 26.1443 79.3794 27.0419 82.0194 27.0419C83.6562 27.0419 85.0818 26.7251 86.349 26.0387C87.6162 25.4051 88.6194 24.6131 89.3058 23.6627L88.7778 23.0291C87.6162 23.9267 86.2962 24.3491 84.765 24.3491C82.653 24.3491 81.0162 23.6627 79.9074 22.2371C78.7458 20.8115 78.2178 19.0163 78.3234 16.6931H89.6226C89.6226 14.1587 88.989 12.0995 87.669 10.4627C86.349 8.87869 84.501 8.08669 82.125 8.08669C79.1682 8.08669 76.8978 9.03709 75.261 10.8851C73.6242 12.7331 72.8322 15.0035 72.8322 17.6963C72.8322 20.4419 73.677 22.6595 75.4194 24.4019ZM79.3266 11.1491C79.9074 9.88189 80.6466 9.24829 81.6498 9.24829C83.2338 9.24829 84.0258 11.2547 84.0258 15.3203L78.429 15.4259C78.4818 13.8419 78.7458 12.4163 79.3266 11.1491ZM103.826 9.03709C102.4 8.40349 100.605 8.03389 98.4402 8.03389C96.2226 8.03389 94.4802 8.61469 93.1602 9.72349C91.8402 10.8323 91.1538 12.2051 91.1538 13.8419C91.1538 15.2675 91.5762 16.3763 92.3682 17.1683C93.1602 17.9603 94.4274 18.6467 96.0642 19.2275C97.5426 19.7555 98.5986 20.2835 99.1266 20.7587C99.6546 21.2867 99.9714 21.8675 99.9714 22.6595C99.9714 23.3987 99.7074 24.0851 99.1266 24.6131C98.5986 25.1939 97.8594 25.4579 96.909 25.4579C94.5858 25.4579 92.8434 23.7683 91.629 20.3891L90.7314 20.6531L90.9426 25.9331C92.8434 26.6723 94.9554 27.0419 97.2786 27.0419C99.7074 27.0419 101.555 26.5139 102.928 25.4051C104.301 24.3491 104.987 22.8179 104.987 20.9171C104.987 19.6499 104.671 18.5939 103.984 17.8019C103.298 17.0099 102.189 16.3235 100.605 15.6899C98.8626 15.0563 97.6482 14.4755 97.0146 13.9475C96.381 13.4195 96.0642 12.7859 96.0642 11.9939C96.0642 11.2019 96.2754 10.5683 96.7506 10.0403C97.2258 9.51229 97.8066 9.30109 98.5458 9.30109C100.658 9.30109 102.189 10.8323 103.139 13.8419L104.037 13.5779L103.826 9.03709ZM53.0322 8.56189C52.293 8.19229 51.501 8.03389 50.6034 8.03389C49.7058 8.03389 48.8082 8.40349 47.805 9.14269C46.8018 9.88189 46.0626 10.8851 45.4818 12.2579L45.5346 8.03389L37.509 9.61789V10.3571L38.301 10.4099C39.3042 10.5155 39.885 11.3075 39.9906 12.7331C40.3074 16.0067 40.3074 19.4915 39.9906 23.1875C39.885 24.6131 39.3042 25.3523 38.301 25.5107L37.509 25.6163V26.6195H48.7026V25.6163L47.277 25.5107C46.2738 25.4051 45.693 24.6131 45.5874 23.1875C45.2706 20.1251 45.2178 16.8515 45.4818 13.4723C45.7986 12.9443 46.485 12.6275 47.541 12.5219C48.597 12.4163 49.8114 12.7331 51.0786 13.4723L53.0322 8.56189Z" fill="black"/>
</svg>
