<svg width="228" height="32" viewBox="0 0 228 32" fill="none" xmlns="http://www.w3.org/2000/svg">
<path d="M85.552 12.5035V26.6669H80.3953V12.5035H75.1679V7.98254H90.7794V12.5035H85.552Z" fill="#29171B"/>
<path d="M102.859 21.0156H94.6292C94.8058 22.5697 95.6888 23.2408 96.9956 23.2408C98.2318 23.2408 99.2561 22.9582 100.634 22.2518L102.47 25.3247C100.74 26.349 98.9382 26.9141 96.7484 26.9141C92.5453 26.9141 90.2142 23.9119 90.2142 19.6382C90.2142 14.7993 92.9338 12.3269 96.6071 12.3269C100.457 12.3269 102.859 14.8699 102.859 20.062C102.894 20.4858 102.894 20.8037 102.859 21.0156ZM96.5012 15.9295C95.4062 15.9295 94.8058 16.6713 94.6292 18.0488H98.6204C98.4084 16.6359 97.914 15.9295 96.5012 15.9295Z" fill="#29171B"/>
<path d="M111.795 26.9493C107.698 26.9493 105.225 24.3356 105.225 19.6027C105.225 15.2936 107.415 12.3621 111.901 12.3621C114.55 12.3621 116.068 13.5983 117.269 15.5409L113.949 18.0486C113.278 16.8124 112.819 16.2473 111.795 16.2473C110.559 16.2473 109.958 17.4835 109.958 19.7086C109.958 21.9338 110.629 23.0641 111.936 23.0641C112.854 23.0641 113.49 22.5696 114.373 21.2627L117.411 23.6292C115.786 25.9956 114.267 26.9493 111.795 26.9493Z" fill="#29171B"/>
<path d="M128.148 26.6668V18.7198C128.148 16.9184 127.548 16.4239 126.559 16.4239C125.534 16.4239 124.934 16.8831 124.934 18.6844V26.6668H120.13V9.14802L124.934 7.24072V13.6337C125.817 12.9626 126.806 12.3975 128.466 12.3975C131.539 12.3975 132.987 14.446 132.987 18.1193V26.6668H128.148Z" fill="#29171B"/>
<path d="M144.466 26.9492C138.921 26.9492 135.954 22.8521 135.954 17.3422C135.954 11.3378 139.486 7.73511 144.466 7.73511C149.057 7.73511 150.859 9.71302 152.166 13.245L147.468 15.0464C146.797 13.3157 146.161 12.2208 144.466 12.2208C142.311 12.2208 141.393 14.3753 141.393 17.3422C141.393 20.2031 142.311 22.4636 144.537 22.4636C146.161 22.4636 146.868 21.5806 147.857 19.8146L152.236 22.1457C151 24.5828 148.916 26.9492 144.466 26.9492Z" fill="#29171B"/>
<path d="M164.033 17.9428C163.433 17.2718 162.726 16.7773 161.808 16.7773C160.643 16.7773 159.901 17.3424 159.901 19.0378V26.6669H155.097V12.6802H159.901V13.7044C160.713 12.8921 161.667 12.3976 162.903 12.3976C163.927 12.3976 164.598 12.6448 165.164 12.998L164.033 17.9428Z" fill="#29171B"/>
<path d="M175.442 26.6668V25.7485C174.594 26.4195 173.57 26.9847 171.945 26.9847C168.872 26.9847 167.424 24.9361 167.424 21.2628V12.7153H172.263V20.6624C172.263 22.4637 172.863 22.9582 173.852 22.9582C174.841 22.9582 175.442 22.499 175.442 20.6977V12.7153H180.281V26.7021H175.442V26.6668Z" fill="#29171B"/>
<path d="M191.759 26.6667V18.7197C191.759 16.9184 191.159 16.4239 190.17 16.4239C189.146 16.4239 188.545 16.883 188.545 18.6844V26.6667H183.742V12.6799H188.545V13.5983C189.428 12.9272 190.417 12.3621 192.077 12.3621C195.15 12.3621 196.598 14.4106 196.598 18.0839V26.6314H191.759V26.6667Z" fill="#29171B"/>
<path d="M205.958 26.9493C201.861 26.9493 199.389 24.3356 199.389 19.6027C199.389 15.2936 201.579 12.3621 206.064 12.3621C208.713 12.3621 210.232 13.5983 211.433 15.5409L208.113 18.0486C207.442 16.8124 206.982 16.2473 205.958 16.2473C204.722 16.2473 204.122 17.4835 204.122 19.7086C204.122 21.9338 204.793 23.0641 206.099 23.0641C207.018 23.0641 207.654 22.5696 208.537 21.2627L211.574 23.6292C209.949 25.9956 208.431 26.9493 205.958 26.9493Z" fill="#29171B"/>
<path d="M222.312 26.6668V18.7198C222.312 16.9184 221.711 16.4239 220.722 16.4239C219.698 16.4239 219.097 16.8831 219.097 18.6844V26.6668H214.294V9.14802L219.097 7.24072V13.6337C219.98 12.9626 220.969 12.3975 222.629 12.3975C225.702 12.3975 227.15 14.446 227.15 18.1193V26.6668H222.312Z" fill="#29171B"/>
<path d="M0.289307 0V10.6667H10.956V32H21.5873V10.6667H32.2893V0H0.289307Z" fill="#29171B"/>
<path d="M42.9207 21.3333V10.6666H32.2894V32H64.254V21.3333H42.9207Z" fill="#29171B"/>
<path d="M64.2539 0H42.9205V10.6667H64.2539V0Z" fill="#29171B"/>
</svg>
