<svg width="188" height="24" viewBox="0 0 188 24" fill="none" xmlns="http://www.w3.org/2000/svg">
<path d="M132.069 0C134.439 0.0817417 137.3 0.163485 139.058 1.9618C140.08 3.18793 140.652 4.70015 140.611 6.29411C140.652 7.68372 140.12 9.07333 139.14 10.0542C138.445 10.6673 137.627 11.1577 136.769 11.5256C137.832 11.7708 138.813 12.2613 139.63 12.9969C140.693 14.2231 141.306 15.7762 141.265 17.411C141.306 18.9641 140.734 20.4354 139.63 21.5389C137.75 23.4599 135.298 23.4599 132.6 23.5416H121.81V18.7189L123.895 18.7597V4.74102L121.81 4.78189V0H132.069ZM129.984 9.44117C131.905 9.48204 132.151 9.48204 132.6 9.35943C133.704 9.1142 134.439 8.1333 134.399 7.02979C134.439 6.13063 133.99 5.31321 133.254 4.86363C132.723 4.57753 132.396 4.57754 130.025 4.57754L129.984 9.44117ZM129.984 18.7189H131.865C133.172 18.7189 135.012 18.678 135.012 16.471C135.052 15.4901 134.48 14.5909 133.581 14.2231C133.009 13.9778 132.764 13.9778 130.066 13.9778L129.984 18.7189Z" fill="#29171B"/>
<path d="M158.88 17.5744C158.635 18.8006 158.349 20.4354 156.796 21.9068C155.243 23.3781 153.035 23.9094 150.91 23.9094C146.292 23.9094 142.286 21.6615 142.286 14.9587C142.246 13.7735 142.409 12.6291 142.736 11.4847C143.921 7.52022 147.15 5.88538 150.706 5.88538C153.362 5.88538 155.529 6.82541 156.796 8.09241C159.33 10.5447 159.207 14.55 159.166 16.1031H148.621C148.621 17.4518 148.662 19.7815 150.828 19.7815C152.627 19.7815 152.872 18.2693 152.954 17.6153L158.88 17.5744ZM152.954 12.7926C152.995 12.343 152.913 11.8525 152.79 11.4438C152.504 10.6264 151.728 10.1359 150.869 10.1768C148.867 10.1768 148.785 12.0978 148.785 12.7926H152.954Z" fill="#29171B"/>
<path d="M176.782 18.7187V23.5414H169.588L169.466 21.5387C168.403 23.1327 166.605 24.0319 164.684 23.9501C161.578 23.9501 159.657 22.1109 159.657 18.7595C159.575 16.9203 160.474 15.1629 161.986 14.182C164.193 12.6698 167.586 12.7924 169.302 12.8333C169.343 12.2202 169.343 11.6071 169.22 10.9941C169.139 10.2584 168.485 9.6862 167.708 9.72707C167.299 9.72707 166.891 9.89055 166.564 10.1766C166.155 10.6262 165.992 11.2393 166.032 11.8524H160.229C160.229 10.8715 160.433 9.93143 160.842 9.03227C162.068 6.53915 165.215 5.80347 167.626 5.80347C169.874 5.80347 172.49 6.4574 173.921 7.92875C175.228 9.23662 175.351 10.7488 175.351 12.0158V18.7187H176.782ZM169.302 15.8577C168.689 15.776 168.035 15.8168 167.422 15.9803C166.482 16.2255 165.828 17.1247 165.869 18.1056C165.869 19.2909 166.482 19.9039 167.381 19.9039C167.994 19.9039 168.566 19.5769 168.893 19.0865C169.18 18.596 169.302 18.0647 169.302 17.5334V15.8577Z" fill="#29171B"/>
<path d="M185.16 0.858154V6.25311H187.939V11.035H185.16V17.2474C185.201 17.8604 185.242 19.1683 186.877 19.1683C187.203 19.1683 187.49 19.1274 187.776 19.0048V23.4189C186.59 23.6641 185.364 23.8276 184.138 23.8684C182.217 23.8684 180.746 23.3371 180.01 22.6015C179.07 21.6614 179.029 20.4353 179.029 19.4544V11.035H177.517V6.25311H179.479V2.12515L185.16 0.858154Z" fill="#29171B"/>
<path d="M0.423706 0H10.5597V4.78189L8.47527 4.74102L11.9084 18.2284L15.6277 4.74102L13.5433 4.78189V0H22.8209V4.78189L21.2678 4.74102L15.4233 23.5416H7.82134L1.89506 4.74102L0.423706 4.78189V0Z" fill="#29171B"/>
<path d="M37.2893 17.5744C37.0441 18.8006 36.758 20.4354 35.2049 21.9068C33.6518 23.3781 31.4448 23.9094 29.3195 23.9094C24.7011 23.9094 20.6957 21.6615 20.6957 14.9587C20.6549 13.7735 20.8184 12.6291 21.1453 11.4847C22.3306 7.52022 25.5594 5.88538 29.1151 5.88538C31.7717 5.88538 33.9379 6.82541 35.2049 8.09241C37.7389 10.5447 37.6163 14.55 37.5754 16.1031H27.0307C27.0307 17.4518 27.0716 19.7815 29.2378 19.7815C31.0361 19.7815 31.2813 18.2693 31.363 17.6153L37.2893 17.5744ZM31.363 12.7926C31.4039 12.343 31.3222 11.8525 31.1996 11.4438C30.9135 10.6264 30.096 10.1359 29.2786 10.1768C27.276 10.1768 27.1942 12.0978 27.1942 12.7926H31.363Z" fill="#29171B"/>
<path d="M55.9674 18.7188H57.3978V23.5416H49.755V13.4056C49.7959 12.9969 49.7141 12.5473 49.6324 12.1386C49.3871 11.5664 48.815 11.1986 48.2019 11.2395C47.7114 11.2395 47.2619 11.4438 46.9349 11.7708C46.3218 12.3839 46.281 13.1195 46.281 14.1004V18.8006H47.4662V23.5416H38.7198V18.7188H40.1095V11.0351H38.7198V6.25323H45.5453L45.7496 8.86897C45.9949 8.33764 46.3627 7.88807 46.7714 7.47936C47.9567 6.33497 49.5098 5.72191 51.1446 5.76278C52.9429 5.76278 54.169 6.41671 54.7821 7.11152C55.9265 8.2559 55.9674 9.64552 55.9674 10.8716V18.7188Z" fill="#29171B"/>
<path d="M65.6537 0.858154V6.25311H68.4329V11.035H65.6537V17.2474C65.6946 17.8604 65.7355 19.1683 67.3703 19.1683C67.6973 19.1683 67.9834 19.1274 68.2694 19.0048V23.4189C67.0842 23.6641 65.8581 23.8276 64.6319 23.8684C62.711 23.8684 61.2397 23.3371 60.504 22.6015C59.564 21.6614 59.5231 20.4353 59.5231 19.4544V11.035H58.0109V6.25311H59.9727V2.12515L65.6537 0.858154Z" fill="#29171B"/>
<path d="M77.0159 6.25317V16.3483C77.0159 17.0431 77.0977 18.637 78.6508 18.637C80.2039 18.637 80.2856 16.9205 80.2856 16.0213V11.0351L79.0186 11.0759V6.25317H86.498V18.7597L87.9284 18.7188V23.5416H80.8169V21.6206C80.2447 22.4789 79.4273 23.1328 78.4873 23.5007C77.629 23.8276 76.7707 23.9911 75.8715 23.9911C74.5228 24.0729 73.2149 23.5824 72.1932 22.6424C70.8853 21.3754 70.8444 19.6997 70.8035 18.1057V11.0351L69.4139 11.0759V6.25317H77.0159Z" fill="#29171B"/>
<path d="M96.225 9.23676C96.5111 8.29673 97.1242 6.04883 100.435 6.04883C101.007 6.04883 101.538 6.0897 102.07 6.25318V11.7707C101.579 11.6481 101.089 11.6073 100.598 11.6073C99.5356 11.5664 98.4729 11.9342 97.6555 12.629C96.8381 13.4465 96.8381 14.3456 96.8381 15.8987L96.7564 18.7188H98.7999V23.5416H89.3179V18.7188H90.7484V11.0351H89.3179V6.25318H96.0207L96.225 9.23676Z" fill="#29171B"/>
<path d="M119.93 17.5744C119.685 18.8006 119.399 20.4354 117.846 21.9068C116.293 23.3781 114.086 23.9094 111.96 23.9094C107.342 23.9094 103.337 21.6615 103.337 14.9587C103.296 13.7735 103.459 12.6291 103.786 11.4847C104.972 7.52022 108.2 5.88538 111.715 5.88538C114.372 5.88538 116.538 6.82541 117.805 8.09241C120.339 10.5447 120.216 14.55 120.176 16.1031H109.672C109.672 17.4518 109.713 19.7815 111.879 19.7815C113.677 19.7815 113.922 18.2693 114.004 17.6153L119.93 17.5744ZM114.004 12.7926C114.045 12.343 113.963 11.8525 113.841 11.4438C113.554 10.6264 112.778 10.1359 111.92 10.1768C109.917 10.1768 109.835 12.0978 109.835 12.7926H114.004Z" fill="#29171B"/>
</svg>
