<svg width="284" height="24" viewBox="0 0 284 24" fill="none" xmlns="http://www.w3.org/2000/svg">
<path d="M281.779 20.7036C280.955 20.7036 280.268 21.3906 280.268 22.3178C280.268 23.2446 280.955 23.9316 281.779 23.9316C282.602 23.9316 283.289 23.2446 283.289 22.3178C283.289 21.3906 282.602 20.7036 281.779 20.7036ZM227.117 23.8281H234.053V23.2104L233.298 23.0386C232.611 22.8667 232.302 22.4893 232.302 21.5274V12.189H233.916C234.911 12.189 235.427 12.4292 235.495 14.5239L235.667 18.9185C235.804 22.8667 236.937 23.9658 238.861 23.9658C240.817 23.9658 241.332 22.6265 241.332 20.7383V19.9483H240.611V20.5318C240.611 21.8027 240.44 22.6953 239.958 22.6953C239.512 22.6953 239.478 22.352 239.375 20.7725L239.169 17.7514C238.894 13.6997 238.379 12.292 235.392 11.7422C238.242 10.9873 239.993 8.89259 239.993 5.9053C239.993 2.02542 236.937 0.171407 234.019 0.171407H222.311V0.789555L222.963 0.926767C224.199 1.20165 224.234 1.85401 224.234 4.63524V18.3003C224.234 21.3564 223.375 22.8325 221.417 22.8325C219.667 22.8325 218.705 21.9741 218.705 18.6436V2.40331C218.705 1.44189 219.014 1.16747 219.769 0.995611L220.697 0.789555V0.171407H213.521V0.789555L214.276 0.995611C214.963 1.20166 215.203 1.47653 215.203 2.43751V18.4033C215.203 22.0083 217.298 24 220.491 24C223.684 24 225.263 22.0083 225.263 18.3003V3.39895C225.263 1.54494 225.641 0.892572 227.151 0.892572C228.353 0.892572 228.869 1.30467 228.869 2.43751V21.5274C228.869 22.4893 228.56 22.8325 227.873 23.0044L227.117 23.2104V23.8281ZM273.195 2.43751C273.195 1.47653 273.504 1.16747 274.19 1.02981L275.117 0.823749V0.171407H267.976V0.789555L268.731 0.995611C269.418 1.20166 269.727 1.47653 269.727 2.43751V21.6655C269.727 22.5923 269.35 23.1074 268.284 23.1074C267.049 23.1074 266.877 22.6953 266.431 20.6699L262.036 0.103017H260.662L256.474 20.0171C255.993 22.2486 255.753 22.7641 254.825 23.0386L254.242 23.2104V23.8281H259.152V23.2104L258.431 23.0728C257.401 22.8667 257.126 22.3178 257.641 19.708L260.113 6.96973L262.825 20.4634C263.238 22.4204 263.204 22.7983 261.727 23.0728L261.006 23.2104V23.8281H279.203V16H278.551C278.208 19.605 277.487 23.0044 274.569 23.0044H273.195V2.43751ZM262.482 17.4419V16.5151H257.847L257.71 17.4419H262.482ZM243.323 2.84962V19.2617C243.323 21.7339 243.323 22.9013 242.088 23.1074L241.469 23.2104V23.8281H246.516V23.2104C244.319 22.9014 244.319 22.146 244.319 19.4678V3.87986L243.495 3.1245L251.907 23.8281H253.349V4.73826C253.349 1.92283 253.349 1.30467 254.723 0.926767L255.203 0.789555V0.171407H250.018V0.789555L250.602 0.926767C252.353 1.23584 252.353 1.92284 252.353 4.53223V16.4805L252.697 16.3775L246.311 0.171407H241.401V0.789555L241.881 0.926767C242.431 1.09862 242.74 1.71679 243.323 2.84962ZM232.302 0.995611H233.676C235.049 0.995611 236.319 1.88821 236.319 6.35204C236.319 10.9185 235.358 11.3647 233.435 11.3647H232.302V0.995611ZM209.435 11.7768C209.435 21.6992 208.611 23.1074 206.825 23.1074C205.04 23.1074 204.25 21.6992 204.25 11.8452C204.25 2.30029 205.109 0.926767 206.825 0.926767C208.611 0.926767 209.435 2.30029 209.435 11.7768ZM213.178 11.9829C213.178 5.42481 211.083 0 206.825 0C202.534 0 200.508 5.42481 200.508 11.9829C200.508 18.5752 202.602 24 206.825 24C211.186 24 213.178 18.5752 213.178 11.9829ZM198.483 2.43751C198.483 1.47653 198.723 1.16747 199.409 0.995611L200.164 0.789555V0.171407H193.057V0.789555L193.915 0.995611C194.602 1.16747 194.98 1.4077 194.98 2.40331V18.9185C194.98 21.2188 194.774 23.0728 193.057 23.0728C191.958 23.0728 191.135 22.2144 191.169 21.5967C191.271 20.5318 193.057 20.601 193.195 18.8838C193.298 17.6479 192.508 17.1328 191.787 17.0303C190.722 16.8926 189.418 17.7852 189.383 19.5708C189.348 21.8711 190.86 23.9658 193.435 23.9658C196.285 23.9658 198.483 22.0429 198.483 18.3687V2.43751ZM83.8035 2.43751C83.8035 1.47653 84.1126 1.16747 84.7991 1.02981L85.7264 0.823749V0.171407H78.5848V0.789555L79.3401 0.995611C80.0267 1.20166 80.3357 1.47653 80.3357 2.43751V21.6655C80.3357 22.5923 79.9578 23.1074 78.8934 23.1074C77.6575 23.1074 77.4515 22.6953 77.0052 20.6699L72.6102 0.103017H71.2371L67.0482 20.0171C66.5677 22.2486 66.327 22.7641 65.4002 23.0386L64.8162 23.2104V23.8281H69.7264V23.2104L69.0052 23.0728C67.9754 22.8667 67.7005 22.3178 68.2156 19.708L70.6878 6.90091L73.4002 20.4634C73.7777 22.4204 73.7777 22.7983 72.3016 23.0728L71.5804 23.2104V23.8281H89.8123V16H89.16C88.8167 19.605 88.0955 23.0044 85.177 23.0044H83.8035V2.43751ZM179.391 0.995611H180.147C182.277 0.995611 182.997 4.39456 183.238 8H183.889V0.171407H171.426V8H172.078C172.319 4.39456 173.04 0.995611 175.169 0.995611H175.924V21.5274C175.924 22.4893 175.615 22.8325 174.928 23.0044L174.036 23.2104V23.8281H181.452V23.2104L180.387 22.9702C179.735 22.7983 179.391 22.5923 179.391 21.5274V0.995611ZM163.701 11.9483L164.765 11.9829C166.31 12.0171 166.756 12.6011 167.066 16.3437H167.718V6.79833H167.066C166.688 9.78562 166.276 11.0557 164.8 11.0903L163.701 11.1245V0.995633H166.07C168.714 0.995633 169.298 4.32619 169.675 8.00002H170.327V0.171428H158.482V0.789576L159.238 0.995633C160.027 1.20168 160.233 1.68262 160.233 2.47218V21.5274C160.233 22.4893 159.925 22.8325 159.238 23.0044L158.482 23.2105V23.8281H170.671V16H170.018C169.606 19.5708 169.16 23.0044 166.07 23.0044H163.701V11.9483ZM150.757 11.9483L151.821 11.9829C153.366 12.0171 153.812 12.6011 154.121 16.3437H154.774V6.79833H154.121C153.744 9.78562 153.332 11.0557 151.856 11.0903L150.757 11.1245V0.995633H153.126C155.77 0.995633 156.353 4.39458 156.731 8.00002H157.383V0.171428H145.195V0.789576L146.293 0.995633C147.083 1.20168 147.289 1.68262 147.289 2.47218V21.5274C147.289 22.4893 146.98 22.8325 146.293 23.0044L145.538 23.2105V23.8281H157.726V16H157.074C156.662 19.5708 156.216 23.0044 153.126 23.0044H150.757V11.9483ZM136.645 0.995611H137.675C139.048 0.995611 140.319 1.88821 140.319 6.35204C140.319 10.8496 139.358 11.3647 137.435 11.3647H136.645V0.995611ZM131.46 23.8281H138.396V23.2104L137.64 23.0386C136.954 22.8667 136.645 22.4893 136.645 21.5274V12.189H137.915C138.911 12.189 139.426 12.6011 139.495 14.5239L139.666 18.9185C139.804 22.8667 140.937 23.9658 142.86 23.9658C144.817 23.9658 145.331 22.6265 145.331 20.7383V19.9483H144.611V20.5318C144.611 21.8027 144.439 22.6953 143.958 22.6953C143.512 22.6953 143.477 22.352 143.375 20.7725L143.168 17.7514C142.894 13.5967 142.345 12.292 139.392 11.7422C142.242 10.9873 143.992 8.89259 143.992 5.9053C143.992 2.02542 140.937 0.171407 138.018 0.171407H131.46V0.789555L132.216 0.995611C132.903 1.20166 133.211 1.47653 133.211 2.43751V21.5274C133.211 22.4893 132.903 22.8325 132.216 23.0044L131.46 23.2104V23.8281ZM126.207 0.995611H126.963C129.091 0.995611 129.812 4.39456 130.053 8H130.705V0.171407H118.241V8H118.894C119.134 4.39456 119.855 0.995611 121.984 0.995611H122.74V21.5274C122.74 22.4893 122.43 22.8325 121.744 23.0044L120.851 23.2104V23.8281H128.096V23.2104L127.203 23.0044C126.31 22.7983 126.207 22.1118 126.207 21.5274V0.995611ZM118.276 17.6821C118.276 10.6436 110.551 8.78956 110.551 3.67383C110.551 2.57519 110.963 0.926767 112.679 0.926767C115.151 0.926767 116.078 4.12012 116.491 8H117.143V0.171407H116.731C116.559 0.926777 116.25 1.27049 115.804 1.27049C115.014 1.27049 114.602 0.0341946 112.714 0.0341946C109.795 0.0341946 107.804 2.47215 107.804 5.66505C107.804 11.4678 115.529 13.9053 115.529 19.2617C115.529 21.6993 114.396 23.0728 112.851 23.0728C110.551 23.0728 109.04 20.3608 108.628 16H107.975V23.8281H108.387C108.731 22.6953 109.177 22.5923 109.555 22.5923C110.207 22.5923 110.894 23.9658 112.885 23.9658C115.941 23.9658 118.276 21.3222 118.276 17.6821ZM95.7864 2.43751C95.7864 1.47653 96.0955 1.16747 96.782 1.02981L97.7093 0.823749V0.171407H90.5677V0.789555L91.323 0.995611C92.0096 1.20166 92.3187 1.47653 92.3187 2.43751V21.5274C92.3187 22.4893 92.0096 22.8325 91.323 23.0044L90.5677 23.2104V23.8281H101.795V16H101.142C100.8 19.605 100.078 23.0044 97.16 23.0044H95.7864V2.43751ZM73.0565 17.4419V16.5151H68.4217L68.284 17.4419H73.0565ZM53.2112 23.897H54.619L57.8119 7.00438H57.3314L60.8333 23.897H62.0696L66.2586 3.9829C66.7049 1.8882 66.9451 1.16746 67.7693 0.960961L68.4217 0.789555V0.171407H63.5804V0.789555L64.3016 0.926767C65.3314 1.13282 65.5716 1.75097 65.0911 4.29152L62.3787 17.6479H62.7908L60.0438 3.57079C59.7689 2.23146 59.5975 1.13282 60.7308 0.926767L61.4857 0.789555V0.171407H54.8592V0.789555L55.3055 0.892572C55.9925 1.06398 56.0955 1.47654 56.3699 2.78123L57.4344 7.89696L57.2283 4.80665L54.8592 17.3047H55.1683L52.387 3.57079C52.078 2.16307 51.9749 1.09862 53.0736 0.892572L53.5891 0.789555V0.171407H46.825V0.789555L47.4774 0.960961C48.0951 1.13282 48.4388 1.4419 48.8509 3.3301L53.2112 23.897ZM34.8763 11.9483L35.9407 11.9829C37.4857 12.0171 37.932 12.6011 38.2411 16.3437H38.8934V6.79833H38.2411C37.8636 9.78562 37.4515 11.0557 35.9749 11.0903L34.8763 11.1245V0.995633H37.2454C39.889 0.995633 40.473 4.39458 40.8504 8.00002H41.5028V0.171428H29.6575V0.789576L30.4129 0.995633C31.2025 1.20168 31.4085 1.68262 31.4085 2.47218V21.5274C31.4085 22.4893 31.0994 22.8325 30.4129 23.0044L29.6575 23.2105V23.8281H41.8465V16H41.1937C40.782 19.5708 40.3357 23.0044 37.2454 23.0044H34.8763V11.9483ZM13.2796 23.8281H20.3182V23.2104L19.5286 23.0386C18.9105 22.9014 18.4984 22.4893 18.4984 21.5274V12.1548H23.683V21.5274C23.683 22.4893 23.2713 22.9014 22.6532 23.0386L21.8636 23.2104V23.8281H28.9022V23.2104L28.1468 23.0044C27.4603 22.8325 27.1507 22.4546 27.1507 21.4936V2.43751C27.1507 1.47653 27.4603 1.16747 28.1468 0.995611L28.9022 0.789555V0.171407H21.8636V0.789555L22.6532 0.995611C23.2367 1.16747 23.683 1.4077 23.683 2.40331V11.2275H18.4984V2.40331C18.4984 1.44189 18.8763 1.16747 19.5286 0.995611L20.3182 0.789555V0.171407H13.2796V0.789555L14.035 0.995611C14.722 1.20166 15.0306 1.47653 15.0306 2.43751V21.5274C15.0306 22.4893 14.722 22.8325 14.035 23.0044L13.2796 23.2104V23.8281ZM8.02623 0.995611H8.78204C10.9105 0.995611 11.6317 4.39456 11.8719 8H12.5243V0.171407H0.0608673V8H0.713213C0.953457 4.39456 1.67463 0.995611 3.80308 0.995611H4.55845V21.5274C4.55845 22.4893 4.24982 22.8325 3.56284 23.0044L2.67025 23.2104V23.8281H10.0867V23.2104L9.02229 22.9702C8.36995 22.7983 8.02623 22.5923 8.02623 21.5274V0.995611Z" fill="#29171B"/>
</svg>
